<svg width="20" height="20" viewBox="0 0 20 20" fill="none" xmlns="http://www.w3.org/2000/svg">
<path d="M15.0021 8.33283V6.52208C15.0021 6.08023 14.8262 5.65589 14.5135 5.34326L12.1559 2.98561C11.8433 2.67298 11.4189 2.49707 10.9771 2.49707H4.99791C4.0767 2.49707 3.33055 3.24321 3.33055 4.16443V15.836C3.33055 16.7572 4.0767 17.5033 4.99791 17.5033H8.33263" stroke="#131415" stroke-width="1.5" stroke-linecap="round" stroke-linejoin="round"/>
<path d="M15.0021 6.66547H11.6674C11.2072 6.66547 10.8337 6.29198 10.8337 5.83179V2.49707" stroke="#131415" stroke-width="1.5" stroke-linecap="round" stroke-linejoin="round"/>
<path d="M13.7516 18.3369C11.6799 18.3369 10 16.657 10 14.5853C10 12.5136 11.6799 10.8337 13.7516 10.8337C15.8241 10.8337 17.5031 12.5136 17.5031 14.5853C17.5031 16.657 15.8241 18.3369 13.7516 18.3369" stroke="#131415" stroke-width="1.5" stroke-linecap="round" stroke-linejoin="round"/>
<path d="M13.7524 14.446V13.0696" stroke="#131415" stroke-width="1.5" stroke-linecap="round" stroke-linejoin="round"/>
<path d="M13.7516 15.9652C13.714 15.9652 13.6832 15.996 13.684 16.0335C13.684 16.0711 13.7149 16.1019 13.7524 16.1019C13.7899 16.1019 13.8199 16.0711 13.8199 16.0335C13.8199 15.996 13.7899 15.9652 13.7516 15.9652" stroke="#131415" stroke-width="1.5" stroke-linecap="round" stroke-linejoin="round"/>
</svg>
