<svg width="42" height="28" viewBox="0 0 42 28" fill="none" xmlns="http://www.w3.org/2000/svg">
<path d="M34.0081 10.8209L31.9278 24.7399C31.8224 25.4468 31.4667 26.0924 30.9253 26.559C30.384 27.0257 29.6931 27.2824 28.9784 27.2824H28.8293C29.0907 27.2822 29.3487 27.2239 29.5848 27.1116C29.8208 26.9993 30.0289 26.8359 30.1939 26.6333C30.359 26.4306 30.4769 26.1938 30.539 25.9399C30.6012 25.6861 30.6061 25.4216 30.5534 25.1656L27.9875 12.7437C27.888 12.2668 27.6273 11.8387 27.2493 11.5314C26.8713 11.2241 26.399 11.0563 25.9118 11.0562H10.9371L9.68558 8.99368C9.49666 8.68273 9.23089 8.42565 8.91383 8.24717C8.59677 8.06869 8.23911 7.97483 7.87527 7.97462H7.1684C7.09466 7.66339 7.09235 7.33951 7.16163 7.02727C7.2309 6.71502 7.36997 6.42251 7.56841 6.17166C7.76684 5.92082 8.0195 5.71816 8.30742 5.57888C8.59534 5.4396 8.91106 5.36731 9.2309 5.36743H12.815C13.1728 5.36759 13.5248 5.45827 13.8383 5.63103C14.1517 5.8038 14.4163 6.05304 14.6075 6.35556L15.89 8.38899H31.9118C32.2166 8.38904 32.5177 8.45479 32.7947 8.58175C33.0717 8.70872 33.3181 8.89392 33.517 9.12473C33.716 9.35554 33.8629 9.62653 33.9476 9.91923C34.0323 10.2119 34.053 10.5195 34.0081 10.8209Z" fill="url(#paint0_linear_1411_5415)"/>
<path style="mix-blend-mode:multiply" d="M34.0078 10.821L33.405 14.8523C31.8314 14.5207 30.3917 13.7295 29.2682 12.5789C28.1446 11.4283 27.3879 9.97018 27.0938 8.38916H31.9087C32.2137 8.3888 32.5152 8.45425 32.7925 8.58104C33.0699 8.70783 33.3166 8.89297 33.5159 9.12383C33.7151 9.35469 33.8622 9.62582 33.9471 9.91872C34.032 10.2116 34.0527 10.5194 34.0078 10.821Z" fill="url(#paint1_linear_1411_5415)"/>
<path d="M28.8294 27.2827H6.50186C6.01476 27.2827 5.54251 27.115 5.16463 26.8076C4.78675 26.5002 4.52631 26.0721 4.42717 25.5952L1.31279 10.523C1.24919 10.2148 1.255 9.89631 1.32981 9.59065C1.40461 9.28499 1.54654 8.99982 1.74528 8.75583C1.94402 8.51185 2.19459 8.31518 2.4788 8.1801C2.76301 8.04501 3.07374 7.9749 3.38842 7.97485H7.87529C8.2392 7.97481 8.597 8.06845 8.91422 8.24677C9.23145 8.42508 9.49743 8.68207 9.68654 8.99298L10.9381 11.0555H25.9119C26.399 11.0555 26.8713 11.2233 27.2493 11.5307C27.6273 11.838 27.888 12.2661 27.9875 12.743L30.5534 25.1658C30.6061 25.4218 30.6012 25.6863 30.5391 25.9402C30.4769 26.194 30.359 26.4309 30.1939 26.6335C30.0289 26.8362 29.8208 26.9996 29.5848 27.1118C29.3488 27.2241 29.0907 27.2825 28.8294 27.2827Z" fill="#DEE1EC"/>
<path d="M28.8292 27.5637H6.5017C5.94983 27.5619 5.41531 27.3707 4.98751 27.022C4.5597 26.6734 4.26454 26.1885 4.15138 25.6484L1.03888 10.5799C0.966778 10.2308 0.973321 9.87 1.05804 9.52373C1.14276 9.17745 1.30352 8.85439 1.52866 8.57799C1.7538 8.30159 2.03767 8.07879 2.35965 7.92578C2.68163 7.77276 3.03364 7.69337 3.39013 7.69336H7.87513C8.28661 7.69439 8.69099 7.80061 9.04985 8.00195C9.4087 8.20328 9.71012 8.49303 9.92544 8.84367L11.0954 10.7674H25.9079C26.4611 10.7689 26.997 10.9605 27.4257 11.31C27.8545 11.6596 28.1501 12.1459 28.2629 12.6874L30.8289 25.1093C30.8901 25.4062 30.8845 25.713 30.8124 26.0074C30.7403 26.3018 30.6036 26.5765 30.4121 26.8115C30.2206 27.0465 29.9792 27.236 29.7054 27.3661C29.4317 27.4962 29.1323 27.5637 28.8292 27.5637ZM3.39013 8.25586C3.11752 8.25633 2.84843 8.31745 2.60236 8.43479C2.35629 8.55214 2.13942 8.72276 1.96746 8.9343C1.7955 9.14584 1.67277 9.39299 1.60815 9.65784C1.54354 9.92268 1.53866 10.1986 1.59388 10.4655L4.7017 25.5312C4.7886 25.9447 5.01474 26.3158 5.34234 26.5827C5.66993 26.8495 6.07917 26.9959 6.5017 26.9974H28.8292C29.0491 26.9975 29.2662 26.9485 29.4648 26.854C29.6634 26.7595 29.8384 26.622 29.9772 26.4514C30.1159 26.2808 30.2149 26.0814 30.2668 25.8677C30.3188 25.654 30.3225 25.4314 30.2776 25.2162L27.7117 12.7943C27.6249 12.3805 27.3988 12.009 27.0709 11.7419C26.7431 11.4748 26.3336 11.3284 25.9108 11.3271H10.7814L9.44826 9.13242C9.28244 8.86439 9.05089 8.64318 8.77558 8.48977C8.50026 8.33636 8.19031 8.25584 7.87513 8.25586H3.39013Z" fill="#5E6175"/>
<path d="M28.9782 27.5637H28.8291V27.0012C29.049 27.0012 29.2662 26.9522 29.4648 26.8578C29.6633 26.7633 29.8384 26.6258 29.9771 26.4552C30.1158 26.2845 30.2148 26.0851 30.2668 25.8715C30.3188 25.6578 30.3224 25.4352 30.2776 25.2199L27.7116 12.7981C27.6249 12.3842 27.3987 12.0127 27.0709 11.7457C26.7431 11.4786 26.3335 11.3322 25.9107 11.3309H10.7813L9.44819 9.13619C9.28283 8.86747 9.05147 8.64551 8.77613 8.49142C8.50078 8.33734 8.19059 8.25626 7.87506 8.25588H6.94506L6.89444 8.03932C6.81113 7.68681 6.80867 7.32002 6.88722 6.96642C6.96578 6.61282 7.12333 6.28158 7.34806 5.99751C7.5728 5.71343 7.85889 5.48389 8.18492 5.32607C8.51095 5.16825 8.86847 5.08624 9.23069 5.08619H12.8148C13.2203 5.08489 13.6195 5.18699 13.9747 5.38285C14.3298 5.57871 14.6291 5.86186 14.8444 6.20557L16.0454 8.10776H31.9116C32.2568 8.10788 32.5979 8.18244 32.9116 8.32634C33.2254 8.47023 33.5044 8.68009 33.7297 8.9416C33.955 9.20311 34.1213 9.51013 34.2172 9.84172C34.3131 10.1733 34.3363 10.5217 34.2854 10.8631C34.2854 10.8724 34.3323 10.5537 32.206 24.7821C32.0871 25.5541 31.6967 26.2583 31.105 26.7681C30.5134 27.278 29.7592 27.5601 28.9782 27.5637ZM11.0954 10.7712H25.9079C26.4605 10.7725 26.996 10.9635 27.4247 11.3123C27.8534 11.6611 28.1493 12.1466 28.2629 12.6874L30.8288 25.1093C30.9184 25.5431 30.8644 25.9942 30.6751 26.3946C31.2004 25.971 31.5479 25.3659 31.6491 24.6987L33.7294 10.7796C33.7684 10.5182 33.7505 10.2515 33.6771 9.99765C33.6036 9.74378 33.4763 9.50874 33.3037 9.30854C33.1312 9.10834 32.9175 8.94769 32.6773 8.83754C32.4371 8.72739 32.1759 8.67034 31.9116 8.67026H15.7341L14.3682 6.50557C14.2031 6.24254 13.9738 6.02586 13.7019 5.87595C13.43 5.72604 13.1243 5.64783 12.8138 5.64869H9.22975C8.97121 5.64917 8.71567 5.70418 8.47983 5.81012C8.24399 5.91606 8.03314 6.07055 7.86106 6.26351C7.68898 6.45647 7.55953 6.68356 7.48118 6.92994C7.40282 7.17633 7.37731 7.43647 7.40631 7.69338H7.87506C8.28654 7.69441 8.69092 7.80064 9.04978 8.00197C9.40863 8.2033 9.71005 8.49306 9.92538 8.84369L11.0954 10.7712Z" fill="#5E6175"/>
<path d="M9.89648 17.7163L12.9766 14.6362L14.0198 15.6795L10.9398 18.7596L9.89648 17.7163Z" fill="#5E6175"/>
<path d="M9.89648 15.6787L10.9398 14.6354L14.0198 17.7155L12.9766 18.7588L9.89648 15.6787Z" fill="#5E6175"/>
<path d="M17.0664 17.7163L20.1465 14.6362L21.1898 15.6795L18.1097 18.7596L17.0664 17.7163Z" fill="#5E6175"/>
<path d="M17.0664 15.679L18.1097 14.6357L21.1898 17.7158L20.1465 18.759L17.0664 15.679Z" fill="#5E6175"/>
<path d="M20.729 22.37C20.6475 22.2969 18.69 20.5691 15.6356 20.5691C12.5812 20.5691 10.6228 22.2969 10.5412 22.37L10.3003 22.5866L11.3494 23.7557L11.5903 23.5447C12.7433 22.6374 14.1679 22.1441 15.6351 22.1441C17.1023 22.1441 18.5269 22.6374 19.68 23.5447L19.9209 23.7585L20.97 22.5866L20.729 22.37Z" fill="#5E6175"/>
<path d="M35.0666 13.4779C38.6889 13.4779 41.6253 10.5414 41.6253 6.9191C41.6253 3.2968 38.6889 0.360352 35.0666 0.360352C31.4443 0.360352 28.5078 3.2968 28.5078 6.9191C28.5078 10.5414 31.4443 13.4779 35.0666 13.4779Z" fill="#F5F5F5"/>
<path d="M35.0625 13.759C33.7089 13.759 32.3858 13.3577 31.2603 12.6057C30.1349 11.8537 29.2577 10.7848 28.7397 9.53428C28.2217 8.28374 28.0862 6.90769 28.3503 5.58014C28.6143 4.25258 29.2661 3.03314 30.2232 2.07602C31.1804 1.11891 32.3998 0.467104 33.7274 0.203037C35.0549 -0.0610308 36.431 0.0744991 37.6815 0.592486C38.932 1.11047 40.0009 1.98765 40.7529 3.1131C41.5049 4.23855 41.9063 5.56172 41.9063 6.91529C41.9063 8.73036 41.1852 10.4711 39.9018 11.7545C38.6183 13.038 36.8776 13.759 35.0625 13.759ZM35.0625 0.642474C33.82 0.642475 32.6054 1.01098 31.5723 1.70138C30.5393 2.39178 29.7342 3.37306 29.2589 4.52108C28.7837 5.6691 28.6595 6.93229 28.9023 8.15086C29.145 9.36943 29.7437 10.4886 30.6226 11.3669C31.5016 12.2452 32.6212 12.843 33.84 13.0849C35.0587 13.3267 36.3218 13.2016 37.4695 12.7255C38.6172 12.2494 39.5978 11.4436 40.2875 10.41C40.9771 9.37642 41.3447 8.16155 41.3438 6.91904C41.3425 5.25396 40.6802 3.6575 39.5024 2.48055C38.3245 1.3036 36.7276 0.642474 35.0625 0.642474Z" fill="#5E6175"/>
<path d="M35.7913 8.48282H34.3428C34.343 7.9933 34.4594 7.51082 34.6823 7.07502C34.9053 6.63922 35.2285 6.26254 35.6253 5.97595C35.7593 5.87975 35.8663 5.75075 35.9361 5.60131C36.0059 5.45187 36.0361 5.28701 36.0239 5.12253C36.0117 4.95805 35.9574 4.79947 35.8663 4.66199C35.7752 4.5245 35.6503 4.41273 35.5036 4.33739C35.3569 4.26204 35.1932 4.22565 35.0284 4.2317C34.8636 4.23775 34.7031 4.28605 34.5623 4.37195C34.4215 4.45785 34.3051 4.57848 34.2243 4.72227C34.1436 4.86607 34.1011 5.0282 34.1009 5.19314H32.6562C32.6573 4.7805 32.7643 4.37505 32.967 4.0156C33.1696 3.65616 33.4612 3.35476 33.8137 3.14027C34.1662 2.92578 34.5679 2.80539 34.9802 2.79061C35.3926 2.77583 35.8019 2.86717 36.1688 3.05588C36.5358 3.24458 36.8482 3.52434 37.076 3.86836C37.3039 4.21237 37.4396 4.60913 37.4702 5.02063C37.5008 5.43213 37.4253 5.8446 37.2508 6.21854C37.0763 6.59247 36.8088 6.91535 36.4738 7.15626C36.2634 7.30781 36.0918 7.50702 35.9732 7.73759C35.8546 7.96816 35.7922 8.22353 35.7913 8.48282Z" fill="#E1830E"/>
<path d="M34.3267 9.60229H35.7807V11.0564H34.3267V9.60229Z" fill="#E1830E"/>
<defs>
<linearGradient id="paint0_linear_1411_5415" x1="7.10933" y1="16.3249" x2="34.0315" y2="16.3249" gradientUnits="userSpaceOnUse">
<stop stop-color="#A9AFC4"/>
<stop offset="1" stop-color="#D4D8E5"/>
</linearGradient>
<linearGradient id="paint1_linear_1411_5415" x1="27.0966" y1="11.6198" x2="34.0313" y2="11.6198" gradientUnits="userSpaceOnUse">
<stop stop-color="#CACFDD"/>
<stop offset="1" stop-color="#EEF0F1"/>
</linearGradient>
</defs>
</svg>
