<svg width="24" height="24" viewBox="0 0 24 24" fill="none" xmlns="http://www.w3.org/2000/svg">
<path d="M5.51676 11.075V19.4083" stroke="white" stroke-width="1.25" stroke-linecap="round" stroke-linejoin="round"/>
<path d="M18.4831 11.075V19.4083" stroke="white" stroke-width="1.25" stroke-linecap="round" stroke-linejoin="round"/>
<path d="M13.8518 19.4075V15.7042C13.8518 14.6817 13.0226 13.8525 12.0001 13.8525C10.9776 13.8525 10.1484 14.6817 10.1484 15.7042V19.4075" stroke="white" stroke-width="1.25" stroke-linecap="round" stroke-linejoin="round"/>
<path d="M3.6665 19.4084H20.3332" stroke="white" stroke-width="1.25" stroke-linecap="round" stroke-linejoin="round"/>
<path fill-rule="evenodd" clip-rule="evenodd" d="M5.58415 11.0742C4.16915 11.0642 3.24665 9.66336 3.85998 8.45586L5.28915 5.6417C5.61498 5.00003 6.29998 4.59253 7.05165 4.59253H16.9483C17.7 4.59253 18.385 5.00003 18.7108 5.6417L20.1408 8.45586C20.7541 9.66336 19.8316 11.0642 18.4166 11.0742C17.2358 11.0742 16.2783 10.2675 16.2783 9.2717V9.2317C16.2783 10.2492 15.3208 11.0742 14.14 11.0742C12.9591 11.0742 12.0016 10.2492 12.0016 9.2317C12.0016 10.2492 11.0441 11.0742 9.86331 11.0742C8.68248 11.0742 7.72498 10.2492 7.72498 9.2317V9.2717C7.72248 10.2675 6.76498 11.0742 5.58415 11.0742Z" stroke="white" stroke-width="1.25" stroke-linecap="round" stroke-linejoin="round"/>
</svg>
